<?xml version="1.0" encoding="utf-8"?>
<svg xmlns="http://www.w3.org/2000/svg" viewBox="-332.277 276.892 842.357 185.192">
  <g transform="matrix(1, 0, 0, 1, -869.246033, 75.862968)">
    <path d="M560.123 321.431 573.658 321.431 566.562 295.975 560.123 321.431Z" fill-rule="evenodd" style="fill: rgb(143, 109, 79);"/>
    <path d="M666.754 321.431 680.288 321.431 673.194 295.975 666.754 321.431Z" fill-rule="evenodd" style="fill: rgb(143, 109, 79);"/>
    <path d="M783.931 321.431 797.466 321.431 790.369 295.975 783.931 321.431Z" fill-rule="evenodd" style="fill: rgb(143, 109, 79);"/>
    <path d="M576.709 332.485 557.219 332.485 551.212 355.65 541.5 355.65 562.56 276.181 579.741 276.181 602.209 355.65 583.087 355.65 576.709 332.485Z" fill-rule="evenodd" style="fill: rgb(143, 109, 79);"/>
    <path d="M623.509 343.997 645.469 343.997 645.469 355.65 605.482 355.65 605.482 276.181 623.509 276.181 623.509 343.997Z" fill-rule="evenodd" style="fill: rgb(143, 109, 79);"/>
    <path d="M683.34 332.485 663.851 332.485 657.843 355.65 648.132 355.65 669.191 276.181 686.373 276.181 708.842 355.65 689.718 355.65 683.34 332.485Z" fill-rule="evenodd" style="fill: rgb(143, 109, 79);"/>
    <path d="M733.531 357.233 728.214 355.916 723.831 353.916 718.989 350.465 714.12 345.238 711.788 341.853 709.822 338.233 708.221 334.387 706.918 330.081 706.031 325.682 705.524 321.218 705.363 316.716 705.577 311.257 706.257 305.9 707.455 300.691 709.223 295.673 711.615 290.89 714.684 286.386 718.618 282.134 722.995 278.809 727.815 276.422 733.08 274.982 738.791 274.5 742.73 274.752 750.161 276.905 756.937 281.684 759.84 284.963 762.338 288.59 764.469 292.42 764.654 292.787 756.079 300.973 755.801 300.201 754.594 297.179 751.327 291.405 747.277 287.399 742.922 285.552 740.473 285.314 736.699 285.874 730.935 289.954 726.698 298.529 725.407 304.347 724.766 310.308 724.593 316.055 724.818 321.699 725.599 327.372 727.089 332.868 729.444 337.981 731.788 341.301 737.969 345.56 741.926 346.157 744.437 345.869 748.847 343.761 753.034 339.349 756.578 332.989 758.185 328.973 766.296 335.808 764.21 340.705 761.76 344.933 758.756 348.752 755.141 352.06 751.266 354.532 747.135 356.247 742.773 357.246 738.204 357.57 738.176 357.57 738.149 357.57 738.121 357.57 738.121 358.742 738.899 358.742 741.062 358.883 745.082 360.239 748.103 363.411 749.388 367.647 749.518 369.89 749.361 372.256 747.885 376.607 744.482 379.886 739.975 381.294 737.587 381.438 736.238 381.385 732.219 380.745 727.325 379.339 725.377 378.632 725.377 371.643 726.06 371.846 727.663 372.307 732.519 373.496 736.485 374.105 737.153 374.105 741.381 372.367 741.962 369.85 741.905 368.906 738.69 365.555 736.475 365.354 736.009 365.354 735.533 365.346 735.069 365.373 734.735 365.392 734.399 365.414 734.065 365.414 733.531 365.414 733.531 357.233Z" fill-rule="evenodd" style="fill: rgb(143, 109, 79);"/>
    <path d="M800.517 332.485 781.028 332.485 775.02 355.65 765.307 355.65 786.368 276.181 803.548 276.181 826.017 355.65 806.896 355.65 800.517 332.485Z" fill-rule="evenodd" style="fill: rgb(143, 109, 79);"/>
    <path d="M860.181 317.242 873.322 276.181 890.832 276.181 890.832 355.65 872.897 355.65 872.897 307.036 857.499 355.65 855.1 355.65 840.056 309.241 840.056 355.65 830.183 355.65 830.183 276.181 846.966 276.181 860.181 317.242Z" fill-rule="evenodd" style="fill: rgb(143, 109, 79);"/>
    <path d="M917.229 343.997 939.19 343.997 939.19 355.65 899.203 355.65 899.203 276.181 917.229 276.181 917.229 343.997Z" fill-rule="evenodd" style="fill: rgb(143, 109, 79);"/>
    <path d="M962.475 355.65 944.449 355.65 944.449 276.181 962.475 276.181 962.475 355.65Z" fill-rule="evenodd" style="fill: rgb(143, 109, 79);"/>
    <path d="M560.123 321.431 573.658 321.431 566.562 295.975 560.123 321.431Z" stroke="#382A1F" stroke-width="0.0458793" stroke-linejoin="round" stroke-miterlimit="10" fill-rule="evenodd" style=""/>
    <path d="M666.754 321.431 680.288 321.431 673.194 295.975 666.754 321.431Z" stroke="#382A1F" stroke-width="0.0458793" stroke-linejoin="round" stroke-miterlimit="10" fill-rule="evenodd" style=""/>
    <path d="M783.931 321.431 797.466 321.431 790.369 295.975 783.931 321.431Z" stroke="#382A1F" stroke-width="0.0458793" stroke-linejoin="round" stroke-miterlimit="10" fill-rule="evenodd" style=""/>
    <path d="M623.509 343.997 645.469 343.997 645.469 355.65 605.482 355.65 605.482 276.181 623.509 276.181 623.509 343.997Z" stroke="#382A1F" stroke-width="0.0458793" stroke-linejoin="round" stroke-miterlimit="10" fill-rule="evenodd" style="fill: rgb(143, 109, 79);"/>
    <path d="M733.531 357.233 728.214 355.916 723.831 353.916 718.989 350.465 714.12 345.238 711.788 341.853 709.822 338.233 708.221 334.387 706.918 330.081 706.031 325.682 705.524 321.218 705.363 316.716 705.577 311.257 706.257 305.9 707.455 300.691 709.223 295.673 711.615 290.89 714.684 286.386 718.618 282.134 722.995 278.809 727.815 276.422 733.08 274.982 738.791 274.5 742.73 274.752 750.161 276.905 756.937 281.684 759.84 284.963 762.338 288.59 764.469 292.42 764.654 292.787 756.079 300.973 755.801 300.201 754.594 297.179 751.327 291.405 747.277 287.399 742.922 285.552 740.473 285.314 736.699 285.874 730.935 289.954 726.698 298.529 725.407 304.347 724.766 310.308 724.593 316.055 724.818 321.699 725.599 327.372 727.089 332.868 729.444 337.981 731.788 341.301 737.969 345.56 741.926 346.157 744.437 345.869 748.847 343.761 753.034 339.349 756.578 332.989 758.185 328.973 766.296 335.808 764.21 340.705 761.76 344.933 758.756 348.752 755.141 352.06 751.266 354.532 747.135 356.247 742.773 357.246 738.204 357.57 738.176 357.57 738.149 357.57 738.121 357.57 738.121 358.742 738.899 358.742 741.062 358.883 745.082 360.239 748.103 363.411 749.388 367.647 749.518 369.89 749.361 372.256 747.885 376.607 744.482 379.886 739.975 381.294 737.587 381.438 736.238 381.385 732.219 380.745 727.325 379.339 725.377 378.632 725.377 371.643 726.06 371.846 727.663 372.307 732.519 373.496 736.485 374.105 737.153 374.105 741.381 372.367 741.962 369.85 741.905 368.906 738.69 365.555 736.475 365.354 736.009 365.354 735.533 365.346 735.069 365.373 734.735 365.392 734.399 365.414 734.065 365.414 733.531 365.414 733.531 357.233Z" stroke="#382A1F" stroke-width="0.0458793" stroke-linejoin="round" stroke-miterlimit="10" fill-rule="evenodd" style="fill: rgb(143, 109, 79);"/>
    <path d="M860.181 317.242 873.322 276.181 890.832 276.181 890.832 355.65 872.897 355.65 872.897 307.036 857.499 355.65 855.1 355.65 840.056 309.241 840.056 355.65 830.183 355.65 830.183 276.181 846.966 276.181 860.181 317.242Z" stroke="#382A1F" stroke-width="0.0458793" stroke-linejoin="round" stroke-miterlimit="10" fill-rule="evenodd" style="fill: rgb(143, 109, 79);"/>
    <path d="M917.229 343.997 939.19 343.997 939.19 355.65 899.203 355.65 899.203 276.181 917.229 276.181 917.229 343.997Z" stroke="#382A1F" stroke-width="0.0458793" stroke-linejoin="round" stroke-miterlimit="10" fill-rule="evenodd" style="fill: rgb(143, 109, 79);"/>
    <path d="M962.475 355.65 944.449 355.65 944.449 276.181 962.475 276.181 962.475 355.65Z" stroke="#382A1F" stroke-width="0.0458793" stroke-linejoin="round" stroke-miterlimit="10" fill-rule="evenodd" style="fill: rgb(143, 109, 79);"/>
    <path d="M1208.21 212.737 1201.76 213.714 1201.5 212.395 1202.07 212.192 1206.9 210.625 1211.8 209.378 1216.75 208.448 1221.74 207.828 1226.75 207.514 1231.78 207.5 1236.8 207.78 1241.81 208.35 1246.79 209.204 1251.74 210.336 1256.63 211.741 1261.45 213.415 1266.19 215.35 1270.84 217.543 1275.39 219.988 1279.81 222.679 1284.11 225.611 1288.25 228.778 1291.89 231.65 1295.56 234.463 1299.24 237.259 1302.91 240.079 1307.5 243.494 1312.1 246.604 1316.73 249.411 1321.38 251.914 1326.07 254.115 1330.81 256.014 1335.6 257.612 1340.44 258.91 1345.36 259.908 1350.34 260.608 1355.41 261.01 1360.56 261.114 1365.81 260.922 1371.16 260.434 1376.63 259.65 1377.21 259.552 1377.49 260.856 1371.78 262.957 1366.58 264.498 1361.3 265.637 1355.91 266.314 1350.67 266.482 1345.46 266.212 1340.28 265.568 1335.13 264.618 1329.99 263.429 1324.61 261.845 1319.29 259.865 1314.07 257.576 1308.96 255.064 1304.35 252.605 1299.79 250.015 1295.28 247.316 1290.81 244.531 1286.38 241.682 1281.87 238.742 1277.36 235.814 1272.82 232.924 1268.26 230.094 1263.66 227.352 1259.01 224.722 1254.29 222.228 1249.39 219.935 1244.41 217.999 1239.38 216.4 1234.28 215.112 1229.13 214.114 1223.93 213.381 1218.69 212.892 1213.4 212.622 1210.8 212.585 1209.51 212.628 1208.21 212.737Z" stroke="#382A1F" stroke-width="0.0458793" stroke-linejoin="round" stroke-miterlimit="10" fill-rule="evenodd" style="fill: rgb(143, 109, 79);"/>
    <path d="M1000.84 322.695 1010.93 302.5 1018.77 302.5 1009.13 321.703 1024.44 354.435 1009.66 354.435 1000.84 335.412 1000.84 354.435 987.5 354.435 987.5 302.5 1000.84 302.5 1000.84 322.695Z" stroke="#382A1F" stroke-width="0.0458793" stroke-linejoin="round" stroke-miterlimit="10" fill-rule="evenodd" style="fill: rgb(143, 109, 79);"/>
    <path d="M1023.5 302.5 1036.45 302.5 1036.45 333.008 1036.5 335.446 1037.22 340.817 1039.12 344.328 1043.39 345.71 1044.92 345.584 1048.65 343.053 1049.99 338.172 1050.26 333.008 1050.26 302.5 1057.47 302.5 1057.47 335.268 1057.28 339.305 1056.61 343.307 1055.31 347.065 1050.51 352.837 1044 355.238 1040.52 355.481 1038.65 355.388 1033.22 353.983 1028.81 351.206 1025.69 347.169 1023.96 341.914 1023.54 337.444 1023.5 335.268 1023.5 302.5Z" stroke="#382A1F" stroke-width="0.0458793" stroke-linejoin="round" stroke-miterlimit="10" fill-rule="evenodd" style="fill: rgb(143, 109, 79);"/>
    <path d="M1097.45 302.5 1089.96 302.5 1081.63 320.899 1073.92 302.5 1059.5 302.5 1072.09 329.984 1072.09 354.435 1085.18 354.435 1085.18 329.224 1097.45 302.5Z" stroke="#382A1F" stroke-width="0.0458793" stroke-linejoin="round" stroke-miterlimit="10" fill-rule="evenodd" style="fill: rgb(143, 109, 79);"/>
    <path d="M1099.5 302.5 1112.45 302.5 1112.45 333.008 1112.5 335.446 1113.22 340.817 1115.13 344.328 1119.39 345.71 1120.92 345.584 1124.65 343.053 1125.99 338.172 1126.26 333.008 1126.26 302.5 1133.47 302.5 1133.47 335.268 1133.28 339.305 1132.61 343.307 1131.31 347.065 1126.51 352.837 1120.01 355.238 1116.52 355.481 1114.65 355.388 1109.22 353.983 1104.81 351.206 1101.69 347.169 1099.96 341.914 1099.54 337.444 1099.5 335.268 1099.5 302.5Z" stroke="#382A1F" stroke-width="0.0458793" stroke-linejoin="round" stroke-miterlimit="10" fill-rule="evenodd" style="fill: rgb(143, 109, 79);"/>
    <path d="M1180.47 302.5 1168.06 302.5 1159.26 328.429 1150.41 302.5 1138.5 302.5 1138.5 354.435 1145.8 354.435 1145.8 325.86 1155.62 354.435 1157.61 354.435 1167.67 324.477 1167.67 354.435 1180.47 354.435 1180.47 302.5Z" stroke="#382A1F" stroke-linejoin="round" stroke-miterlimit="10" fill-rule="evenodd" style="fill: rgb(143, 109, 79);"/>
    <path d="M1227.28 341.535 1224.08 347.353 1219.5 351.868 1213.79 354.606 1207.6 355.44 1205.51 355.352 1201.4 354.614 1197.55 353.093 1194.14 350.863 1190.72 347.492 1187.68 342.946 1185.6 337.612 1184.62 331.856 1184.5 328.906 1184.87 323.45 1186.04 318.307 1188.08 313.539 1191.07 309.207 1194.72 305.75 1198.78 303.351 1203.22 301.953 1208.01 301.5 1210.73 301.658 1215.96 303.043 1220.71 306.109 1224.52 310.567 1219.92 319.364 1219.58 318.499 1218.73 316.55 1216.5 312.943 1212.32 309.738 1209.18 309.174 1206.75 309.485 1202.83 311.947 1199.87 317.388 1198.55 324.809 1198.42 328.483 1198.58 332.1 1200.14 339.116 1203.41 344.459 1207.62 347.045 1210.19 347.382 1211.84 347.212 1216.17 344.837 1218.99 341.241 1221.05 337.038 1221.37 336.237 1227.49 340.99 1227.28 341.535Z" stroke="#382A1F" stroke-width="0.0458793" stroke-linejoin="round" stroke-miterlimit="10" fill-rule="evenodd" style="fill: rgb(143, 109, 79);"/>
    <path d="M1230.5 302.5 1243.45 302.5 1243.45 333.008 1243.5 335.446 1244.22 340.817 1246.12 344.328 1250.39 345.71 1251.92 345.584 1255.65 343.053 1256.99 338.172 1257.26 333.008 1257.26 302.5 1264.47 302.5 1264.47 335.268 1264.28 339.305 1263.61 343.307 1262.31 347.065 1257.51 352.837 1251 355.238 1247.52 355.481 1245.65 355.388 1240.22 353.983 1235.81 351.206 1232.69 347.169 1230.96 341.914 1230.54 337.444 1230.5 335.268 1230.5 302.5Z" stroke="#382A1F" stroke-width="0.0458793" stroke-linejoin="round" stroke-miterlimit="10" fill-rule="evenodd" style="fill: rgb(143, 109, 79);"/>
    <path d="M1283.4 346.175 1298.45 346.175 1298.45 354.435 1270.5 354.435 1270.5 302.5 1283.4 302.5 1283.4 346.175Z" stroke="#382A1F" stroke-width="0.0458793" stroke-linejoin="round" stroke-miterlimit="10" fill-rule="evenodd" style="fill: rgb(143, 109, 79);"/>
    <path d="M1300.5 302.5 1313.45 302.5 1313.45 333.008 1313.5 335.446 1314.22 340.817 1316.12 344.328 1320.39 345.71 1321.92 345.584 1325.65 343.053 1326.99 338.172 1327.26 333.008 1327.26 302.5 1334.47 302.5 1334.47 335.268 1334.28 339.305 1333.61 343.307 1332.31 347.065 1327.51 352.837 1321 355.238 1317.52 355.481 1315.65 355.388 1310.22 353.983 1305.81 351.206 1302.69 347.169 1300.96 341.914 1300.54 337.444 1300.5 335.268 1300.5 302.5Z" stroke="#382A1F" stroke-width="0.0458793" stroke-linejoin="round" stroke-miterlimit="10" fill-rule="evenodd" style="fill: rgb(143, 109, 79);"/>
    <path d="M1352.48 322.695 1362.3 302.5 1369.92 302.5 1360.55 321.703 1375.44 354.435 1361.06 354.435 1352.48 335.412 1352.48 354.435 1339.5 354.435 1339.5 302.5 1352.48 302.5 1352.48 322.695Z" stroke="#382A1F" stroke-width="0.0458793" stroke-linejoin="round" stroke-miterlimit="10" fill-rule="evenodd" style="fill: rgb(143, 109, 79);"/>
    <path d="M1230.62 230.5 1224.66 230.898 1219.21 232.122 1213.97 234.211 1209.79 236.647 1205.94 239.6 1202.41 243.013 1199.19 246.832 1196.27 251.002 1193.68 255.28 1191.34 259.682 1189.21 264.197 1187.27 268.813 1185.51 273.519 1183.9 278.303 1182.42 283.153 1181.04 288.058 1179.75 293.007 1179.7 293.062 1179.66 293.129 1179.56 293.368 1179.54 293.539 1179.58 293.697 1179.5 294.004 1179.86 294.16 1179.89 294.186 1180.04 294.28 1180.12 294.306 1180.23 294.327 1180.56 294.487 1180.69 294.25 1180.82 294.169 1180.93 294.03 1181 293.763 1181.01 293.648 1183.33 289.586 1185.76 285.603 1188.22 281.65 1190.65 277.677 1193.68 272.972 1196.92 268.643 1200.36 264.706 1204.03 261.18 1207.92 258.083 1212.05 255.432 1216.42 253.245 1221.04 251.54 1225.93 250.334 1231.08 249.646 1236.02 249.486 1240.91 249.765 1245.76 250.431 1250.57 251.428 1255.34 252.702 1260.07 254.199 1264.77 255.865 1269.77 257.775 1274.76 259.77 1279.72 261.82 1289.63 265.979 1294.59 268.035 1299.57 270.037 1304.57 271.959 1309.61 273.774 1314.68 275.455 1319.1 276.816 1323.53 278.086 1328 279.203 1332.5 280.101 1337.2 280.702 1341.87 280.889 1346.54 280.645 1351.23 279.954 1355.21 279.013 1359.11 277.805 1362.96 276.381 1366.77 274.793 1373.63 271.736 1376.5 270.475 1376.12 269.144 1375.52 269.326 1374.48 269.629 1369.84 270.779 1365.31 271.71 1359.97 272.592 1354.59 273.163 1348.61 273.323 1346.61 273.284 1342.4 273.092 1337.34 272.356 1332.33 271.263 1326.97 269.862 1321.68 268.171 1316.46 266.229 1311.29 264.076 1306.19 261.748 1301.13 259.284 1296.13 256.724 1291.49 254.27 1286.86 251.78 1282.24 249.278 1277.61 246.788 1272.97 244.337 1267.95 241.774 1262.9 239.332 1257.8 237.069 1252.63 235.041 1247.38 233.306 1242.03 231.92 1236.58 230.94 1233.61 230.623 1230.62 230.5Z" stroke="#382A1F" stroke-linejoin="round" stroke-miterlimit="10" fill-rule="evenodd" style="fill: rgb(143, 109, 79);"/>
  </g>
</svg>
